<svg id="visual" viewBox="0 0 900 600" width="900" height="600" xmlns="http://www.w3.org/2000/svg" xmlns:xlink="http://www.w3.org/1999/xlink" version="1.1"><rect x="0" y="0" width="900" height="600" fill="#fff"></rect><path d="M0 156L10.7 141C21.3 126 42.7 96 64.2 120.5C85.7 145 107.3 224 128.8 232.8C150.3 241.7 171.7 180.3 193 180.7C214.3 181 235.7 243 257 282C278.3 321 299.7 337 321.2 312.8C342.7 288.7 364.3 224.3 385.8 186.8C407.3 149.3 428.7 138.7 450 159C471.3 179.3 492.7 230.7 514.2 249.5C535.7 268.3 557.3 254.7 578.8 225.7C600.3 196.7 621.7 152.3 643 169.3C664.3 186.3 685.7 264.7 707 300.3C728.3 336 749.7 329 771.2 294.2C792.7 259.3 814.3 196.7 835.8 200.5C857.3 204.3 878.7 274.7 889.3 309.8L900 345L900 0L889.3 0C878.7 0 857.3 0 835.8 0C814.3 0 792.7 0 771.2 0C749.7 0 728.3 0 707 0C685.7 0 664.3 0 643 0C621.7 0 600.3 0 578.8 0C557.3 0 535.7 0 514.2 0C492.7 0 471.3 0 450 0C428.7 0 407.3 0 385.8 0C364.3 0 342.7 0 321.2 0C299.7 0 278.3 0 257 0C235.7 0 214.3 0 193 0C171.7 0 150.3 0 128.8 0C107.3 0 85.7 0 64.2 0C42.7 0 21.3 0 10.7 0L0 0Z" fill="#0d0d0d" stroke-linecap="round" stroke-linejoin="miter"></path></svg>